<svg xmlns="http://www.w3.org/2000/svg"  viewBox="0 0 64 64" width="512px" height="512px"><radialGradient id="rQqjnSUGxprE2SEHQ~MXka" cx="32" cy="1758" r="32" gradientTransform="translate(0 -1726)" gradientUnits="userSpaceOnUse"><stop offset="0" stop-color="#f4e9c3"/><stop offset=".219" stop-color="#f8eecd"/><stop offset=".644" stop-color="#fdf4dc"/><stop offset="1" stop-color="#fff6e1"/></radialGradient><path fill="url(#rQqjnSUGxprE2SEHQ~MXka)" d="M61.97,58.03C61.34,57.39,60.46,57,59.5,57s-1.84,0.39-2.47,1.03	C56.39,58.66,56,59.54,56,60.5s0.39,1.84,1.03,2.47C57.66,63.61,58.54,64,59.5,64c1.93,0,3.5-1.57,3.5-3.5	C63,59.54,62.61,58.66,61.97,58.03z M56.5,25h3c1.24,0,2.37-0.5,3.18-1.32C63.5,22.87,64,21.74,64,20.5c0-2.49-2.01-4.5-4.5-4.5H51	c-1.1,0-2.1-0.45-2.83-1.17C47.45,14.1,47,13.1,47,12c0-2.21,1.79-4,4-4h5c1.1,0,2.1-0.45,2.83-1.17C59.55,6.1,60,5.1,60,4	c0-2.21-1.79-4-4-4H14c-1.1,0-2.1,0.45-2.83,1.17C10.45,1.9,10,2.9,10,4s0.45,2.1,1.17,2.83C11.9,7.55,12.9,8,14,8	c0.83,0,2.33,0.34,2.62,0.88C16.92,9.42,17,10.17,17,11c0,1.66-1.34,3-3,3H5.5c-0.96,0-1.84,0.39-2.47,1.03	C2.39,15.66,2,16.54,2,17.5C2,19.43,3.57,21,5.5,21H7c0.83,0,1.58,0.34,2.12,0.88C9.66,22.42,10,23.17,10,24c0,1.66-2.34,3-4,3v10	l9,3c0.96,0,2.34-2.61,2.97-1.97C18.61,38.66,19,39.54,19,40.5c0,1.93-1.57,3.5-3.5,3.5H8c-1.1,0-2.1,0.45-2.83,1.17	C4.45,45.9,4,46.9,4,48c0,2.21,1.79,4,4,4l0,0c0.08,0,0.42,0,0.5,0c1.38,0,2.5,1.12,2.5,2.5S9.88,57,8.5,57C8.42,57,6,57,6,57	c-0.96,0-1.96,0.39-2.72,1.03C2.52,58.66,2,59.54,2,60.5C2,62.43,3.57,64,5.5,64h44c0.96,0,1.84-0.39,2.47-1.03	C52.61,62.34,53,61.46,53,60.5c0-1.93-1.57-3.5-3.5-3.5H46c-0.55,0-1.05-0.22-1.41-0.59C44.22,56.05,44,55.55,44,55c0-1.1,1.9-2,3-2	h10c1.1,0,2.1-0.45,2.83-1.17C60.55,51.1,61,50.1,61,49c0-2.21-1.79-4-4-4h-7.5c-0.69,0-1.32-0.28-1.77-0.73S47,43.19,47,42.5	c0-1.38,1.12-2.5,2.5-2.5H53c1.1,0,2.1-0.45,2.83-1.17C56.55,38.1,57,37.1,57,36c0-2.21,3.21-4,1-4h1.5c-0.96,0-1.84-0.39-2.47-1.03	C56.39,30.34,56,29.46,56,28.5C56,26.57,54.57,25,56.5,25z M6.83,1.17C6.1,0.45,5.1,0,4,0C1.79,0,0,1.79,0,4	c0,1.1,0.45,2.1,1.17,2.83C1.9,7.55,2.9,8,4,8s2.1-0.45,2.83-1.17C7.55,6.1,8,5.1,8,4S7.55,1.9,6.83,1.17z"/><linearGradient id="rQqjnSUGxprE2SEHQ~MXkb" x1="32" x2="32" y1="58.447" y2="7.25" gradientUnits="userSpaceOnUse"><stop offset="0" stop-color="#155cde"/><stop offset=".278" stop-color="#1f7fe5"/><stop offset=".569" stop-color="#279ceb"/><stop offset=".82" stop-color="#2cafef"/><stop offset="1" stop-color="#2eb5f0"/></linearGradient><path fill="url(#rQqjnSUGxprE2SEHQ~MXkb)" d="M32,45C15.467,45,3,39.411,3,32s12.467-13,29-13c16.532,0,29,5.589,29,13S48.532,45,32,45z M32,23c-14.309,0-25,4.751-25,9c0,4.248,10.691,9,25,9s25-4.752,25-9C57,27.751,46.309,23,32,23z"/><linearGradient id="rQqjnSUGxprE2SEHQ~MXkc" x1="31.999" x2="31.999" y1="58.191" y2="5.21" gradientUnits="userSpaceOnUse"><stop offset="0" stop-color="#155cde"/><stop offset=".278" stop-color="#1f7fe5"/><stop offset=".569" stop-color="#279ceb"/><stop offset=".82" stop-color="#2cafef"/><stop offset="1" stop-color="#2eb5f0"/></linearGradient><path fill="url(#rQqjnSUGxprE2SEHQ~MXkc)" d="M42.969,58.022c-2.744,0-5.962-1.361-9.386-4.021c-4.549-3.533-9.109-9.038-12.842-15.503	c-8.266-14.317-9.66-27.908-3.242-31.614l0,0c6.417-3.706,17.492,4.297,25.759,18.614c3.732,6.465,6.22,13.167,7.005,18.872	c0.869,6.314-0.468,10.84-3.764,12.742C45.445,57.722,44.259,58.022,42.969,58.022z M19.499,10.349	c-3.679,2.124-2.448,13.759,4.706,26.15c3.48,6.027,7.682,11.121,11.831,14.344c3.559,2.763,6.721,3.815,8.463,2.806	c1.742-1.005,2.415-4.27,1.801-8.732c-0.716-5.204-3.026-11.39-6.507-17.417C32.64,15.109,23.183,8.228,19.499,10.349L19.499,10.349	z"/><linearGradient id="rQqjnSUGxprE2SEHQ~MXkd" x1="32" x2="32" y1="57.809" y2="5.933" gradientUnits="userSpaceOnUse"><stop offset="0" stop-color="#155cde"/><stop offset=".278" stop-color="#1f7fe5"/><stop offset=".569" stop-color="#279ceb"/><stop offset=".82" stop-color="#2cafef"/><stop offset="1" stop-color="#2eb5f0"/></linearGradient><path fill="url(#rQqjnSUGxprE2SEHQ~MXkd)" d="M21.01,58.017c-1.274,0-2.456-0.292-3.511-0.901c-3.295-1.903-4.632-6.428-3.763-12.742	c0.785-5.706,3.272-12.408,7.005-18.872l0,0c3.732-6.464,8.293-11.97,12.842-15.502c5.032-3.91,9.619-5.016,12.916-3.112	c3.296,1.902,4.633,6.428,3.764,12.742c-0.785,5.706-3.272,12.408-7.005,18.872C36.351,50.463,27.484,58.017,21.01,58.017z M24.205,27.501c-3.479,6.026-5.79,12.212-6.506,17.417c-0.614,4.463,0.059,7.728,1.8,8.732c3.681,2.129,13.141-4.758,20.294-17.149	c3.48-6.027,5.791-12.212,6.507-17.417c0.614-4.462-0.059-7.727-1.801-8.733c-1.738-1.004-4.904,0.044-8.463,2.807	C31.887,16.38,27.685,21.474,24.205,27.501L24.205,27.501z"/><linearGradient id="rQqjnSUGxprE2SEHQ~MXke" x1="32" x2="32" y1="29" y2="39" gradientTransform="matrix(1 0 0 -1 0 66)" gradientUnits="userSpaceOnUse"><stop offset="0" stop-color="#155cde"/><stop offset=".278" stop-color="#1f7fe5"/><stop offset=".569" stop-color="#279ceb"/><stop offset=".82" stop-color="#2cafef"/><stop offset="1" stop-color="#2eb5f0"/></linearGradient><circle cx="32" cy="32" r="5" fill="url(#rQqjnSUGxprE2SEHQ~MXke)"/></svg>