<?xml version="1.0" encoding="UTF-8" standalone="no"?>
<!-- Created with Inkscape (http://www.inkscape.org/) -->

<svg
   xmlns:dc="http://purl.org/dc/elements/1.1/"
   xmlns:cc="http://creativecommons.org/ns#"
   xmlns:rdf="http://www.w3.org/1999/02/22-rdf-syntax-ns#"
   xmlns:svg="http://www.w3.org/2000/svg"
   xmlns="http://www.w3.org/2000/svg"
   xmlns:sodipodi="http://sodipodi.sourceforge.net/DTD/sodipodi-0.dtd"
   xmlns:inkscape="http://www.inkscape.org/namespaces/inkscape"
   width="600.27661mm"
   height="600.27661mm"
   viewBox="0 0 2126.9644 2126.9644"
   id="svg2"
   version="1.1"
   inkscape:version="0.91 r13725"
   sodipodi:docname="Ubuntu logoib.svg">
  <title
     id="title4163">Ubuntu logoib</title>
  <defs
     id="defs4" />
  <sodipodi:namedview
     id="base"
     pagecolor="#ffffff"
     bordercolor="#666666"
     borderopacity="1.0"
     inkscape:pageopacity="0.0"
     inkscape:pageshadow="2"
     inkscape:zoom="0.175"
     inkscape:cx="-67.824164"
     inkscape:cy="702.04378"
     inkscape:document-units="px"
     inkscape:current-layer="layer1"
     showgrid="false"
     fit-margin-top="0"
     fit-margin-left="0"
     fit-margin-right="0"
     fit-margin-bottom="0"
     inkscape:window-width="1728"
     inkscape:window-height="1089"
     inkscape:window-x="-8"
     inkscape:window-y="-8"
     inkscape:window-maximized="1" />
  <metadata
     id="metadata7">
    <rdf:RDF>
      <cc:Work
         rdf:about="">
        <dc:format>image/svg+xml</dc:format>
        <dc:type
           rdf:resource="http://purl.org/dc/dcmitype/StillImage" />
        <dc:title>Ubuntu logoib</dc:title>
      </cc:Work>
    </rdf:RDF>
  </metadata>
  <g
     inkscape:label="Calque 1"
     inkscape:groupmode="layer"
     id="layer1"
     transform="translate(1261.6124,549.66389)">
    <g
       id="g4228">
      <path
         d="m 863.50878,513.81825 c 0,-69.48207 -6.84167,-138.96781 -20.39969,-207.11546 C 829.55476,238.55515 809.28778,171.74193 782.6952,107.54595 756.1063,43.353652 723.19549,-18.221412 684.58943,-75.995955 645.98705,-133.7705 601.69312,-187.74083 552.56282,-236.87481 503.42884,-286.00511 449.4585,-330.29905 391.68396,-368.90142 333.90942,-407.50748 272.33435,-440.41829 208.14206,-467.00719 143.94607,-493.59977 77.132852,-513.86676 8.9852111,-527.42109 -59.16243,-540.9791 -128.64818,-547.82077 -198.13024,-547.82077 c -69.48206,0 -138.96781,6.84167 -207.11545,20.39968 -68.14764,13.55433 -134.96086,33.82132 -199.15685,60.4139 -64.1923,26.5889 -125.76736,59.49971 -183.5419,98.10577 -57.77454,38.60237 -111.74488,82.89631 -160.87886,132.02661 -49.1303,49.13398 -93.4242,103.10431 -132.0266,160.878855 -38.6061,57.774543 -71.5169,119.349607 -98.1058,183.541905 -26.5926,64.19598 -46.8595,131.0092 -60.4139,199.15684 -13.558,68.14765 -20.3997,137.63339 -20.3997,207.11546 0,69.48206 6.8417,138.96781 20.3997,207.11545 13.5544,68.14764 33.8213,134.96086 60.4139,199.15684 26.5889,64.1923 59.4997,125.76736 98.1058,183.54186 38.6024,57.7746 82.8963,111.7449 132.0266,160.8789 49.13398,49.1303 103.10432,93.4242 160.87886,132.0266 57.77454,38.6061 119.3496,71.5169 183.5419,98.1058 64.19599,26.5926 131.00921,46.8595 199.15685,60.4139 68.14764,13.558 137.63339,20.3997 207.11545,20.3997 69.48206,0 138.96781,-6.8417 207.1154511,-20.3997 68.1476409,-13.5544 134.9608589,-33.8213 199.1568489,-60.4139 64.19229,-26.5889 125.76736,-59.4997 183.5419,-98.1058 57.77454,-38.6024 111.74488,-82.8963 160.87886,-132.0266 49.1303,-49.134 93.42423,-103.1043 132.02661,-160.8789 38.60606,-57.7745 71.51687,-119.34956 98.10577,-183.54186 26.59258,-64.19598 46.85956,-131.0092 60.41389,-199.15684 13.55802,-68.14764 20.39969,-137.63339 20.39969,-207.11545 z"
         style="fill:#dd4814;fill-opacity:1;stroke:#ff0000;stroke-width:3.68624663;stroke-linecap:butt;stroke-linejoin:miter;stroke-miterlimit:10;stroke-dasharray:none;stroke-opacity:1"
         id="path4190"
         inkscape:connector-curvature="0" />
      <path
         d="m -747.06765,513.81825 c 0,-36.37589 -15.06938,-72.75177 -40.78832,-98.4744 -25.72263,-25.72262 -62.1022,-40.792 -98.47808,-40.792 -36.37588,0 -72.75176,15.06938 -98.47439,40.792 -25.72266,25.72263 -40.78836,62.09851 -40.78836,98.4744 0,36.37588 15.0657,72.75176 40.78836,98.47439 25.72263,25.72263 62.09851,40.792 98.47439,40.792 36.37588,0 72.75545,-15.06937 98.47808,-40.792 25.71894,-25.72263 40.78832,-62.09851 40.78832,-98.47439 z"
         style="fill:#ffffff;fill-opacity:1;stroke:#ff0000;stroke-width:3.68624663;stroke-linecap:butt;stroke-linejoin:miter;stroke-miterlimit:10;stroke-dasharray:none;stroke-opacity:1"
         id="path4192"
         inkscape:connector-curvature="0" />
      <path
         d="m 76.336623,989.21135 c -31.502664,18.18795 -55.470639,49.42515 -64.885313,84.56245 -9.4146738,35.1374 -4.276046,74.1747 13.911895,105.6774 18.18794,31.5026 49.425194,55.4743 84.562495,64.889 35.1373,9.4146 74.17466,4.276 105.67732,-13.9119 31.50266,-18.1917 55.47432,-49.4289 64.889,-84.5662 9.41467,-35.1336 4.27604,-74.171 -13.9119,-105.6736 -18.19162,-31.5064 -49.42888,-55.47437 -84.56618,-64.88904 -35.1373,-9.41468 -74.17097,-4.27605 -105.677317,13.91189 z"
         style="fill:#ffffff;fill-opacity:1;stroke:#ff0000;stroke-width:3.68624663;stroke-linecap:butt;stroke-linejoin:miter;stroke-miterlimit:10;stroke-dasharray:none;stroke-opacity:1"
         id="path4194"
         inkscape:connector-curvature="0" />
      <path
         d="m 76.336623,38.42514 c 31.506347,18.187941 70.540017,23.326568 105.677317,13.911895 35.1373,-9.414674 66.37456,-33.38265 84.56618,-64.888999 18.18794,-31.502664 23.32657,-70.540015 13.9119,-105.673636 -9.41468,-35.1373 -33.38634,-66.37455 -64.889,-84.56618 -31.50266,-18.18794 -70.54002,-23.32657 -105.67732,-13.91189 -35.137301,9.41467 -66.374555,33.38633 -84.562495,64.889 -18.187941,31.50266 -23.3265688,70.54001 -13.911895,105.677313 9.414674,35.137302 33.382649,66.374556 64.885313,84.562497 z"
         style="fill:#ffffff;fill-opacity:1;stroke:#ff0000;stroke-width:3.68624663;stroke-linecap:butt;stroke-linejoin:miter;stroke-miterlimit:10;stroke-dasharray:none;stroke-opacity:1"
         id="path4196"
         inkscape:connector-curvature="0" />
      <path
         d="m 264.85865,937.16155 c -2.39606,2.61724 -5.21973,4.84004 -8.47837,6.66473 -6.5136,3.6457 -13.47323,4.99487 -20.87522,4.04382 -3.70099,-0.47921 -7.155,-1.48187 -10.35466,-3.01904 -26.43776,-12.69175 -56.48804,-18.98417 -86.14021,-17.88567 -29.65586,1.0985 -58.913596,9.59162 -84.53301,24.38452 -25.619414,14.78923 -47.6041882,35.88193 -63.3813237,61.01479 -15.7771353,25.1291 -25.3503183,54.3021 -27.5804973,83.5414 -0.272782,3.5388 -1.124305,7.0333 -2.565627,10.4763 -2.875273,6.8859 -7.52363,12.242 -13.937699,16.0573 -3.207034,1.9095 -6.546774,3.2439 -10.011846,4.0106 -34.860834,7.6895 -70.385197,12.3563 -106.573077,14.0078 -72.37945,3.2955 -143.19962,-5.6732 -212.46788,-26.917 -34.63229,-10.6201 -67.87117,-24.0012 -99.71666,-40.1396 L -372.733,884.56987 c 58.97626,27.77587 125.80423,41.38549 191.69957,38.7019 C -115.1344,920.5845 -50.171674,901.60033 6.7734631,868.7227 63.718601,835.84506 112.64247,789.07765 147.91616,733.35266 183.19354,677.62767 204.81706,612.9451 210.25059,547.98238 l 218.04517,0 c -1.94265,35.646 -6.97438,71.12244 -15.09518,106.42563 -16.23791,70.61005 -43.87739,136.42798 -82.92212,197.46117 -19.52236,30.51475 -41.33019,58.94308 -65.41981,85.29237 z"
         style="fill:#ffffff;fill-opacity:1;stroke:#ff0000;stroke-width:3.68624663;stroke-linecap:butt;stroke-linejoin:miter;stroke-miterlimit:10;stroke-dasharray:none;stroke-opacity:1"
         id="path4198"
         inkscape:connector-curvature="0" />
      <path
         d="m -62.999813,-98.813821 c 3.465072,0.766739 6.804812,2.101161 10.011846,4.010636 6.414069,3.815265 11.062426,9.171382 13.937699,16.05729 1.441322,3.442955 2.292845,6.937517 2.565627,10.476313 2.230179,29.239308 11.803362,58.4122639 27.5804973,83.541407 15.7771355,25.132829 37.7619097,46.225532 63.3813237,61.01844 25.6231,14.789221 54.88084,23.282333 84.53301,24.380835 29.65217,1.0985 59.70245,-5.193921 86.14021,-17.885669 3.19966,-1.537164 6.65367,-2.539823 10.35466,-3.019036 7.40199,-0.951051 14.36162,0.398115 20.87522,4.043813 3.25864,1.824692 6.08231,4.047499 8.47837,6.664734 24.08962,26.349288 45.89745,54.777628 65.41981,85.292378 39.04104,61.03318 66.68421,126.85111 82.92212,197.46117 8.1208,35.30318 13.15253,70.77962 15.09518,106.42562 l -218.04517,0 C 204.81706,414.69139 183.18985,350.00882 147.91616,294.28383 112.64247,238.55884 63.718601,191.79143 6.7734631,158.9138 -50.171674,126.03616 -115.13808,107.05199 -181.03343,104.36472 c -65.89534,-2.68359 -132.72331,10.92603 -191.69957,38.7019 L -481.75743,-45.765046 c 31.84549,-16.138388 65.08069,-29.519463 99.71666,-40.139539 69.26826,-21.243835 140.08843,-30.212475 212.4642,-26.916975 36.19156,1.64775 71.715923,6.31823 106.576757,14.007739 z"
         style="fill:#ffffff;fill-opacity:1;stroke:#ff0000;stroke-width:3.68624663;stroke-linecap:butt;stroke-linejoin:miter;stroke-miterlimit:10;stroke-dasharray:none;stroke-opacity:1"
         id="path4200"
         inkscape:connector-curvature="0" />
      <path
         d="m -796.24955,703.10701 c -1.0727,-3.38398 -1.5814,-6.9412 -1.53348,-10.67537 0.0995,-7.46465 2.4108,-14.16256 6.93751,-20.1011 2.26336,-2.96743 4.85848,-5.45196 7.78904,-7.45728 24.21127,-16.55125 44.68468,-39.42809 58.55972,-65.65574 13.87503,-26.23133 21.15168,-55.81714 21.15168,-85.39927 0,-29.58582 -7.27665,-59.16795 -21.15168,-85.39928 -13.87504,-26.22764 -34.34845,-49.10449 -58.55972,-65.65574 -2.93056,-2.00531 -5.52568,-4.48985 -7.78904,-7.45727 -4.52671,-5.93855 -6.83798,-12.63646 -6.93751,-20.10111 -0.0479,-3.73416 0.46078,-7.29139 1.53348,-10.67537 10.77121,-34.03511 24.49142,-67.13761 41.15694,-99.30011 33.33104,-64.32869 76.51173,-121.17798 129.54208,-170.544196 26.51517,-24.683108 54.72233,-46.7784697 84.61779,-66.286087 l 109.02443,188.831673 c -53.54274,37.18685 -98.74349,88.25611 -129.36514,146.66838 -30.62534,58.41226 -46.6642,124.16384 -46.6642,189.91911 0,65.75526 16.03886,131.50684 46.6642,189.91911 30.62165,58.41226 75.8224,109.48152 129.36514,146.66838 l -109.02443,188.83166 c -29.89546,-19.5076 -58.10262,-41.60297 -84.61779,-66.28608 -53.03035,-49.36622 -96.21104,-106.21551 -129.54208,-170.5442 -16.66552,-32.1625 -30.38573,-65.265 -41.15694,-99.30011 z"
         style="fill:#ffffff;fill-opacity:1;stroke:#ff0000;stroke-width:3.68624663;stroke-linecap:butt;stroke-linejoin:miter;stroke-miterlimit:10;stroke-dasharray:none;stroke-opacity:1"
         id="path4202"
         inkscape:connector-curvature="0" />
    </g>
  </g>
</svg>
